# xmcd
#
# Track frame offsets:
#	151
#	20609
#	38175
#	51634
#	80354
#	92072
#	103539
#	135207
#	148189
#	167133
#	188898
#	200936
#
# Disc length: 2964
#
# Revision: 1
# Processed by: cddbd v1.5.1PL0 Copyright (c) Steve Scherf et al.
# Submitted via: CDex 1.50
# Normalized: r0:DSETVAR1,TDELIM( - )
#
DISCID=ab0b920c
DTITLE=Various Artist - Jazz For Summer - CD1
DYEAR=1900
DGENRE=Jazz
TTITLE0=Louis Armstrong - I'm Crazy 'Bout My Baby
TTITLE1=Dave Brubeck - Heigh Ho (The Dwarfs' Marching Song)
TTITLE2=Billie Holiday - What A Little Moonlight Can Do
TTITLE3=Miles Davis - Seven Steps To Heaven
TTITLE4=Chet  Baker - A Little Duet For Zoot And Chet
TTITLE5=Carmen McRae - I'm Gonna Lock My Heart (And Throw Away The Key)
TTITLE6=Stan Getz - Who Cares
TTITLE7=Sarah Vaughan - Mean To Me
TTITLE8=Martin Taylor - The Nearness Of You
TTITLE9=Paul Desmond - Was A Sunny Day
TTITLE10=Aretha Franklin - Evil Gal Blues
TTITLE11=George Benson - Myna Bird Blues
EXTD=
EXTT0=
EXTT1=
EXTT2=
EXTT3=
EXTT4=
EXTT5=
EXTT6=
EXTT7=
EXTT8=
EXTT9=
EXTT10=
EXTT11=
PLAYORDER=
